<svg xmlns="http://www.w3.org/2000/svg" width="531.496" height="496.063" stroke-miterlimit="10" color-interpolation="auto" font-size="12" style="font-size:12px;font-style:normal;font-weight:400;fill:#000;fill-opacity:1;stroke:#000;stroke-width:1;stroke-linecap:square;stroke-linejoin:miter;stroke-miterlimit:10;stroke-opacity:1;stroke-dasharray:none;stroke-dashoffset:0;font-family:Dialog"><g style="font-size:12px;font-style:normal;font-weight:400;fill:#000;fill-opacity:1;stroke:#000;stroke-width:1.00002992;stroke-linecap:square;stroke-linejoin:miter;stroke-miterlimit:10;stroke-opacity:1;stroke-dasharray:none;stroke-dashoffset:0;font-family:Dialog"><path stroke="none" d="M122.08 116.81h301.995v281.863H122.08z" style="fill:#fec500;fill-rule:evenodd;stroke:none" transform="translate(-214.854 -205.581)scale(1.75995)"/><path stroke="none" d="M122.08 126.877h291.929v261.73h-291.93z" style="fill-rule:evenodd;stroke:none;fill:#fff" transform="translate(-214.854 -205.581)scale(1.75995)"/><path d="M224.613 292.177s6.935 7.925 9.907 9.411S251.857 311 251.857 311l-.496 11.392s-8.42-1.981-17.832-7.43c-9.41-5.448-17.832-14.364-17.832-14.364l9.907.495zm57.459 29.72s11.393-2.477 19.318-8.42c7.925-5.945 15.85-12.88 15.85-12.88l-9.41.991.99-9.411s-7.43 7.43-12.384 10.897c-4.953 3.468-15.355 6.44-15.355 6.44z" style="fill:#003271;fill-opacity:1;fill-rule:evenodd;stroke:#fff;stroke-width:.34091932;stroke-linecap:butt;stroke-linejoin:miter;stroke-miterlimit:4;stroke-opacity:1;stroke-dasharray:none" transform="translate(-214.854 -205.581)scale(1.75995)"/><path d="M241.95 298.121s12.879 6.935 23.776 6.44c10.897-.496 24.766-6.44 24.766-6.44l.496 15.85s-15.355 5.45-24.767 5.45-24.271-5.45-24.271-5.45z" style="fill:#003271;fill-opacity:1;fill-rule:evenodd;stroke:#fff;stroke-width:.34091932;stroke-linecap:butt;stroke-linejoin:miter;stroke-miterlimit:4;stroke-opacity:1;stroke-dasharray:none" transform="translate(-214.854 -205.581)scale(1.75995)"/><path d="m241.963 313.878 9.305 8.354m39.532-8.26-8.635 7.67" style="fill:none;stroke:#fff;stroke-width:.34091932;stroke-linecap:butt;stroke-linejoin:miter;stroke-miterlimit:4;stroke-opacity:1;stroke-dasharray:none" transform="translate(-214.854 -205.581)scale(1.75995)"/><path stroke="none" d="m245.201 303.52-.16 8.84 2.572.964v-3.536l3.857.16-.16 4.18 2.571.482.16-9.323-2.25-.16-.32 2.893-3.698-.322v-3.536zm36.487 11.09-.16-10.126 6.91-2.09v2.25l-4.5 1.447v2.09l4.34-1.608-.16 2.411-4.18.965-.16 2.41 4.66-1.768.161 1.608z" style="fill:#fec500;fill-opacity:1;fill-rule:evenodd;stroke:none" transform="translate(-214.854 -205.581)scale(1.75995)"/><path stroke="none" d="M259.989 311.234s-.16-3.375 2.09-3.375 2.571 2.572 2.41 3.697c-.16 1.125-.482 3.054-2.089 3.215-1.607.16-2.25-1.126-2.411-3.537m2.25 5.465c2.888-.076 4.34-1.929 4.34-5.625 0-3.536-2.572-5.144-4.5-5.144-1.93 0-4.34 2.411-4.34 5.304s1.28 5.55 4.5 5.465m10.769-8.679v2.41s3.376.161 3.376-1.446-2.893-.804-3.376-.964m-2.25 8.68-.321-9.966 3.857-.322c1.762-.146 4.34.643 4.18 2.25-.161 1.608-.344 3.036-2.894 3.376l-2.41.322-.162 4.179z" style="font-size:12px;fill:#fec500;fill-opacity:1;fill-rule:evenodd;stroke:none" transform="translate(-214.854 -205.581)scale(1.75995)"/><path d="M264.24 211.438s-.495 54.486-.495 58.45c0 3.962 0 9.41-4.458 8.42s-9.907-.99-17.832-6.44c-7.926-5.448-7.926-6.439-7.926-6.439l7.43-2.477s-7.43-1.486-12.383-4.953-8.916-6.44-8.916-6.44-.495 7.43 1.981 12.88c2.477 5.448 7.43 10.401 7.43 10.401v-6.439s6.935 6.44 9.412 7.925c2.476 1.486 12.383 5.449 16.346 7.926 3.962 2.476 11.888 9.411 11.888 9.411s6.934-7.925 11.888-9.907c4.953-1.981 11.392-4.953 14.364-6.934 2.972-1.982 10.897-9.412 10.897-9.412v8.421s5.45-6.44 6.935-10.897c1.486-4.458 1.981-12.384 1.981-12.384s-3.962 2.972-7.43 4.458-13.373 5.45-13.373 5.45l7.925 1.98s-12.879 9.907-17.337 11.888c-4.458 1.982-13.87 2.972-13.87-1.981s.496-62.907.496-62.907z" style="fill:#fec500;fill-opacity:1;fill-rule:evenodd;stroke:#fec500;stroke-width:.56819882pt;stroke-linecap:butt;stroke-linejoin:miter;stroke-opacity:1" transform="translate(-214.854 -205.581)scale(1.75995)"/><path d="M264.735 193.111h3.467v14.86h-3.467z" style="font-size:12px;fill:#fec500;fill-opacity:1;fill-rule:evenodd;stroke:#fec500;stroke-width:.56819886;stroke-opacity:1" transform="translate(-214.854 -205.581)scale(1.75995)"/><path d="M239.969 207.97s13.869-2.97 26.748-2.97c12.878 0 26.252 2.972 26.252 2.972v5.448s-17.832 2.477-28.234 2.477-25.262-2.972-25.262-2.972z" style="fill:#fec500;fill-opacity:1;fill-rule:evenodd;stroke:#fff;stroke-width:.56819882pt;stroke-linecap:butt;stroke-linejoin:miter;stroke-opacity:1" transform="translate(-214.854 -205.581)scale(1.75995)"/><path d="M271.67 205.494c0 3.283-2.329 5.944-5.201 5.944-2.873 0-5.201-2.661-5.201-5.944s2.328-5.944 5.2-5.944 5.202 2.661 5.202 5.944zm2.477-.248c0 4.514-3.549 8.173-7.926 8.173s-7.925-3.659-7.925-8.173 3.548-8.173 7.925-8.173 7.926 3.66 7.926 8.173z" style="font-size:12px;fill:#fec500;fill-opacity:1;fill-rule:evenodd;stroke:#fff;stroke-width:.71024853;stroke-opacity:1;stroke-dasharray:none" transform="translate(-214.854 -205.581)scale(1.75995)"/><path stroke="none" d="m248.451 56.693 8.168 20.39 21.871 2.044-16.869 14.07 4.815 21.432-18.593-11.696-18.895 11.202 5.377-21.297-16.493-14.509 21.917-1.467z" style="fill:#fec500;fill-rule:evenodd;stroke:none" transform="matrix(.92814 0 0 .90972 24.367 7.677)"/><path stroke="none" d="m248.451 56.693 8.168 20.39 21.871 2.044-16.869 14.07 4.815 21.432-18.593-11.696-18.895 11.202 5.377-21.297-16.493-14.509 21.917-1.467z" style="fill:#fec500;fill-rule:evenodd;stroke:none" transform="rotate(29.893 232.2 280.25)scale(.92814 .90972)"/><path stroke="none" d="m248.451 56.693 8.168 20.39 21.871 2.044-16.869 14.07 4.815 21.432-18.593-11.696-18.895 11.202 5.377-21.297-16.493-14.509 21.917-1.467z" style="fill:#fec500;fill-rule:evenodd;stroke:none" transform="rotate(55.57 235.598 267.54)scale(.92814 .90972)"/><path stroke="none" d="m248.451 56.693 8.168 20.39 21.871 2.044-16.869 14.07 4.815 21.432-18.593-11.696-18.895 11.202 5.377-21.297-16.493-14.509 21.917-1.467z" style="fill:#fec500;fill-rule:evenodd;stroke:none" transform="rotate(82.616 235.466 260.817)scale(.92814 .90972)"/><path stroke="none" d="m248.451 56.693 8.168 20.39 21.871 2.044-16.869 14.07 4.815 21.432-18.593-11.696-18.895 11.202 5.377-21.297-16.493-14.509 21.917-1.467z" style="fill:#fec500;fill-rule:evenodd;stroke:none" transform="rotate(110.07 237.867 256.788)scale(.92814 .90972)"/><path stroke="none" d="m248.451 56.693 8.168 20.39 21.871 2.044-16.869 14.07 4.815 21.432-18.593-11.696-18.895 11.202 5.377-21.297-16.493-14.509 21.917-1.467z" style="fill:#fec500;fill-rule:evenodd;stroke:none" transform="matrix(.83366 -.408 .3999 .81711 -64.9 136.038)"/><path stroke="none" d="m248.451 56.693 8.168 20.39 21.871 2.044-16.869 14.07 4.815 21.432-18.593-11.696-18.895 11.202 5.377-21.297-16.493-14.509 21.917-1.467z" style="fill:#fec500;fill-rule:evenodd;stroke:none" transform="rotate(21.41 -609.883 406.205)scale(.92814 .90972)"/><path stroke="none" d="m248.451 56.693 8.168 20.39 21.871 2.044-16.869 14.07 4.815 21.432-18.593-11.696-18.895 11.202 5.377-21.297-16.493-14.509 21.917-1.467z" style="fill:#fec500;fill-rule:evenodd;stroke:none" transform="matrix(.88517 .27913 -.2736 .8676 -75.784 12.627)"/><path stroke="none" d="m248.451 56.693 8.168 20.39 21.871 2.044-16.869 14.07 4.815 21.432-18.593-11.696-18.895 11.202 5.377-21.297-16.493-14.509 21.917-1.467z" style="fill:#fec500;fill-rule:evenodd;stroke:none" transform="rotate(-10.992 948.61 869.825)scale(.92814 .90972)"/><path stroke="none" d="m248.451 56.693 8.168 20.39 21.871 2.044-16.869 14.07 4.815 21.432-18.593-11.696-18.895 11.202 5.377-21.297-16.493-14.509 21.917-1.467z" style="fill:#fec500;fill-rule:evenodd;stroke:none" transform="rotate(-39.986 479.445 369.406)scale(.92814 .90972)"/><path stroke="none" d="m248.451 56.693 8.168 20.39 21.871 2.044-16.869 14.07 4.815 21.432-18.593-11.696-18.895 11.202 5.377-21.297-16.493-14.509 21.917-1.467z" style="fill:#fec500;fill-rule:evenodd;stroke:none" transform="rotate(6.49 -2385.31 -514.49)scale(.92814 .90972)"/><path stroke="none" d="m248.451 56.693 8.168 20.39 21.871 2.044-16.869 14.07 4.815 21.432-18.593-11.696-18.895 11.202 5.377-21.297-16.493-14.509 21.917-1.467z" style="fill:#fec500;fill-rule:evenodd;stroke:none" transform="matrix(.60083 .70742 -.69338 .5889 126.63 182.157)"/><path stroke="none" d="m248.451 56.693 8.168 20.39 21.871 2.044-16.869 14.07 4.815 21.432-18.593-11.696-18.895 11.202 5.377-21.297-16.493-14.509 21.917-1.467z" style="fill:#fec500;fill-rule:evenodd;stroke:none" transform="matrix(.91883 -.13113 .12853 .9006 122.886 326.05)"/></g></svg>