<svg xmlns="http://www.w3.org/2000/svg" width="1000" height="700" style="shape-rendering:geometricprecision;text-rendering:geometricprecision;fill-rule:evenodd;clip-rule:evenodd" viewBox="0 0 3000 2100"><defs><style>.str0{stroke:#002868;stroke-width:4}.fil4{fill:none}.fil3{fill:#002868}.fil1{fill:#fff}</style></defs><path id="rect2289" d="M0 0h3000v2100H0z" style="fill:#bf0a30"/><path id="rect2290" d="M150 150h2700v1800H150z" class="fil1"/><path id="rect2291" d="M225 225h2550v1650H225z" style="fill:#002868"/><path id="path2288" d="M1006.58 1200.68c-9.935-49.674-41.395-91.069-51.33-94.38s-28.15-8.279-28.15-8.279 13.247-9.935 6.625-28.15c-6.625-18.213-36.429-67.888-38.085-96.036-1.654-28.15 6.624-64.577 0-87.758-6.622-23.18-31.46-43.05-33.115-86.103-1.656-43.05 69.543-102.659 110.94-104.315 41.395-1.655 79.477 13.247 102.659 11.592 23.181-1.657 51.33-31.461 69.544-38.085 18.214-6.622 26.492 3.312 38.082-1.655 11.592-4.967 105.973-82.791 200.353-82.791 94.382 0 165.581 34.773 187.108 34.773 21.525 0 61.264-9.936 91.07 0 29.804 9.934 66.23 54.64 109.283 66.231 43.05 11.591 291.422 56.298 319.57 101.004 28.15 44.707 46.363 109.283 46.363 140.745 0 31.46-8.278 115.906-8.278 132.464s8.278 38.084 4.966 59.61c-3.311 21.524-13.246 29.803-13.246 29.803s-6.623-36.428-8.278-57.953c-1.657-21.526 13.245-81.135 11.59-115.906-1.656-34.773-16.558-77.823-16.558-77.823s-9.935 49.674-18.215 81.135c-8.278 31.46-33.115 120.874-33.115 172.204s14.902 125.84 14.902 125.84-41.396 71.201-44.707 99.35c-3.311 28.148-9.934 94.381-8.279 102.66 1.656 8.278-9.934-3.312-13.246 6.623s-1.656 23.18-1.656 23.18l-38.084-3.31s1.657-16.56 8.28-28.15 16.557-19.87 14.902-34.772c-1.656-14.902 1.655-79.478 1.655-79.478s-28.148 48.019-36.428 66.232-8.28 41.396-11.59 49.675c-3.312 8.278-9.934 8.278-13.246 18.213s-8.28 9.935-8.28 9.935l-29.805 1.655s57.955-142.398 61.267-178.826c3.31-36.429-36.43-110.94-44.708-135.776-8.28-24.838-8.28-44.707-16.559-54.641-8.278-9.936-36.427-21.526-46.361-16.56-9.936 4.968-64.577 56.299-76.167 71.2-11.592 14.903-41.396 43.05-41.396 43.05s-66.232-36.427-101.004-44.706c-34.771-8.279-120.874-14.902-120.874-14.902s6.624 127.498 3.31 147.367c-3.31 19.87-19.869 26.493-19.869 39.74V1406c0 9.936-26.492 13.248-33.114 21.526-6.625 8.28 0 14.902-8.28 26.493s-19.87 8.279-24.837 14.901c-4.968 6.625-1.656 46.364-1.656 46.364l-66.233-1.657s26.493-54.64 24.837-86.1-28.148-77.824-33.115-102.66c-4.968-24.837-19.87-62.922-39.74-62.922s-36.427 9.936-36.427 9.936 4.968-82.791-23.182-117.562-96.036-31.461-117.562-26.494c-21.527 4.967-44.707 36.428-52.986 39.74-8.28 3.312-14.902 0-28.15 4.966-13.244 4.968-29.803 18.215-41.394 28.15z" class="fil1"/><g id="g3286"><g id="g1883"><path id="path1825" d="M1307.59 689.937c0-13.64 11.76-9.876 23.048-15.052 11.289-5.173 21.167-12.7 21.167-12.7l.47 35.28H1309z" class="fil1 str0"/><path id="path1826" d="M1494.32 723.806c-11.76 7.056-14.58.47-22.107-6.586-7.526-7.055-30.105-23.518-30.105-23.518l60.21 9.878z" class="fil1 str0"/><path id="path1824" d="M1307.66 687.855c-1.446 13.525-.522 23.33 6.51 29.835 7.054 6.585 12.698 4.234 17.873 3.293 5.174-.942 68.204-26.341 87.49-26.341 19.285 0 45.632.934 60.208 14.582 6.56 6.141 13.17 10.817 12.229 14.581s23.52-13.171 23.048-23.989c-.469-10.819-34.337-32.455-70.556-37.631-36.218-5.173-84.569 23.993-119.476 26.812-12.526 1.193-17.343 3.03-17.326-1.142z" class="fil1" style="stroke:#002868;stroke-width:4;stroke-linejoin:bevel"/><path id="text1827" d="M1493.26 703.22c-1.228 1.708-.754 3.361.87 4.671 1.101.89 2.93 1.753 4.043.375 1.024-1.271.124-2.444-.721-3.518-.86-1.086-2.057-2.295-2.483-3.619-.67-2.087 1.334-4.014 3.315-4.148 2.357-.161 4.823 2.067 5.455 4.233q.5 1.663-.862 3.351l-1.29-1.04q.553-.894.567-1.602c.014-1.547-2.074-3.54-3.643-3.405-1.144.098-2.234 1.137-1.745 2.345.514 1.24 1.712 2.437 2.552 3.504 1.168 1.48 1.685 3.125.368 4.756-1.852 2.296-4.588 1.461-6.587-.152-2.199-1.775-3.065-4.45-1.128-6.792z" class="fil3"/><path id="path1848" d="m1494.72 693.281-.9 1.265-3.57-2.533-6.63 9.343-1.46-1.034 6.63-9.343-3.58-2.535.9-1.262z" class="fil3"/><path id="path1847" d="m1470.53 680.407 1.61.739-2.23 4.885 6.15 2.816 2.23-4.886 1.62.741-5.41 11.822-1.62-.74 2.53-5.529-6.15-2.816-2.53 5.529-1.62-.739z" class="fil3"/><path id="path1846" d="M1457.32 677.092q1.774.451 2.895 1.468 1.628 1.464 1.42 4.04l-1.69-.43q.042-1.458-.767-2.33-.809-.884-2.283-1.257-1.75-.446-3.285.56-1.527 1.01-2.187 3.609-.573 2.248.054 3.914.628 1.659 2.86 2.224 1.706.435 3.072-.268 1.376-.71 1.965-2.915l-3.946-1.004.361-1.415 5.531 1.407-1.713 6.741-1.098-.28v-1.725q-1.109.733-1.87.93-1.286.35-3.02-.09-2.237-.57-3.481-2.431-1.297-2.264-.49-5.439.805-3.164 2.997-4.6 2.084-1.367 4.675-.709" class="fil3"/><path id="path1844" d="m1443.05 674.852 1.77.182-1.33 12.935-1.77-.182z" class="fil3"/><path id="path1842" d="M1433.04 680.066q1.239.067 1.98-.39.752-.454.822-1.745.075-1.389-.905-1.946-.525-.295-1.426-.343l-4.295-.233-.24 4.436zm-5.502-6.263 6.01.324q1.485.083 2.426.566 1.784.93 1.662 3.166-.063 1.167-.589 1.883-.518.716-1.407 1.12.742.351 1.094.875.361.526.345 1.659l-.032 1.745q-.014.743.064 1.11.126.629.522.826l-.015.293-2.157-.118a1.6 1.6 0 0 1-.118-.44q-.038-.27-.033-1.03l.012-2.17q.007-1.278-.853-1.758-.491-.266-1.57-.325l-4.002-.216-.303 5.567-1.758-.095z" class="fil3"/><path id="path1840" d="m1377.29 682.589 1.73-.367 2.38 11.202 6.44-1.369.32 1.515-8.16 1.736z" class="fil3"/><path id="path1839" d="m1369.57 693.318-3.405-5.03-.525 6.094zm-4.798-6.652 1.923-.52 7.948 11.32-1.862.503-2.29-3.416-4.964 1.343-.341 4.128-1.744.472z" class="fil3"/><path id="path1836" d="m1348.55 692.766 1.635 7.867q.286 1.386.999 2.197 1.06 1.228 2.888.847 2.191-.457 2.669-2.119.255-.903-.03-2.28l-1.637-7.87 1.75-.363 1.487 7.15q.487 2.348.118 3.745-.682 2.546-3.906 3.216-3.223.668-4.856-1.395-.894-1.136-1.383-3.482l-1.486-7.15z" class="fil3"/><path id="path1832" d="m1317.14 702.914 9.02-2.918.49 1.514-7.38 2.39 1.21 3.756 6.83-2.211.46 1.433-6.83 2.21 1.36 4.194 7.51-2.431.48 1.473-9.14 2.959z" class="fil3"/><path id="path1849" d="m1345.81 707.363-.586 1.26-2.331-.973a7.06 7.06 0 0 1-3.083 1.715q-2.927.767-5.092-.716-1.952-1.481-2.688-4.29-.669-2.553.122-4.7 1.016-2.755 4.202-3.589 3.33-.872 5.492.847 1.688 1.343 2.37 3.945c.479 1.827.49 3.937-.488 5.61zm-5.218.094q.441-.196.729-.501l-1.661-.719.579-1.276 1.978.845c.687-1.38.643-2.999.259-4.46q-.581-2.217-2.1-3.265-1.511-1.05-3.522-.524-2.039.536-2.888 2.149-.85 1.604-.144 4.301.595 2.27 2.086 3.315c1.44 1.002 3.16.719 4.684.135" class="fil3"/></g><g id="use1823"><path id="path2293" d="M1476.77 1013.57s-11.11-9.028-13.887-13.194-10.415-17.359-10.415-17.359l19.442-20.138s14.582 18.055 14.582 21.527c0 3.471-9.722 29.164-9.722 29.164z" class="fil1 str0"/><path id="path2294" d="M1479.55 915.667s-24.302-20.138-26.387-24.998c-2.082-4.861-2.777-22.22-2.777-22.22l11.805-2.777s4.86 4.166 11.11 7.637c6.249 3.473 15.276 4.167 15.276 4.167z" class="fil1 str0"/><path id="path2295" d="M1496.38 741.431s-.319-7.967-.478-11.631c-.16-3.665-5.257-8.286-5.257-8.286s-6.055 5.895-6.375 8.127c-.319 2.23-.477 13.224-.477 13.224z" class="fil1 str0"/><path id="path2296" d="m1505.78 1022.14-4.33-233.827-25.11.864-3.47 234.703z" class="fil1 str0"/><path id="path2297" d="m1481.3 1024.39 2.218-243.656m-2.218 243.656z" class="fil4 str0"/><path id="path2298" d="m1476.86 1024.39.444-243.656m-.444 243.656z" class="fil4 str0"/><path id="path2299" d="m1494.61 1025.72 1.774-245.875m-1.774 245.875z" class="fil4 str0"/><path id="path2300" d="M1487.96 1025.28c-.443-2.22 1.775-245.876 1.775-245.876m-1.775 245.876z" class="fil4 str0"/><path id="path2301" d="m1502.16 1026.16.443-246.763m-.443 246.763z" class="fil4 str0"/><path id="path2302" d="M1510.98 1039.46v-14.72l-4.33-3.46h-31.18l-7.79 4.33 1.73 15.59z" class="fil1 str0"/><path id="path2303" d="m1504.83 753.86-4.62-7.33 9.24-8.125-37.45-.639 8.13 8.764-3.66 7.17z" class="fil1 str0"/><path id="path2304" d="m1501.72 776.963-6.93-7.17s15.136-14.34 17.208-14.34 3.346 3.346 5.576 3.186c2.231-.16 3.505-1.115 3.505-3.505s-2.23-3.506-5.576-3.346l-49.076-.637c-3.505.158-4.621 2.23-4.46 3.983.158 1.753 2.548 3.505 4.62 3.346 2.072-.16 2.708-3.506 4.94-3.346 2.23.16 11.79 13.384 11.79 14.34l-7.966 7.648z" class="fil1 str0"/><path id="path2305" d="M1507.44 784.468c6.81 7.604 11.345 12.38 10.998 24.265 0 12.5-17.063 31.482-29.784 42.926-12.86 11.573-35.538 19.828-35.538 30.008 0 9.893 1.966 11.154 4.41 14.32-2.014-2.302-12.692-9.483-12.692-26.149 0-16.664 13.888-34.718 29.859-44.44 15.97-9.722 35.413-22.915 35.413-29.858.426-6.187-2.666-11.072-2.666-11.072z" class="fil1 str0"/><path id="path2306" d="M1504.07 889.256c.237 6.826 0 12.524.482 18.08.606 6.56-20.138 20.137-28.47 28.468-8.332 8.333-29.163 17.36-30.552 29.859-1.39 12.498 10.94 24.134 13.817 28.881-3.164-6.618 4.017-14.3 12.256-20.98 7.256-5.885 22.916-14.554 30.865-23.178 7.882-8.55 16.666-22.22 16.666-35.413s-8.815-23.634-15.064-25.717z" class="fil1 str0"/><path id="path2307" d="m1510.16 782.46-8.76 6.454-25.41.797-8.45-7.011 8.45-5.737h25.73z" class="fil1 str0"/></g><g id="g1930"><path id="path1927" d="M1387.51 720.102c-17.944 2.871-22.25 25.84-22.25 25.84s7.894 1.435 7.894 8.613.718 15.79.718 15.79l15.791-17.226z" class="fil1 str0"/><path id="path1928" d="M1366.69 745.224c-6.46 6.46-9.33 14.355-9.33 14.355s-8.613-19.38-6.46-23.687c2.153-4.306 7.894-9.33 7.177-13.637-.718-4.306-4.306-5.024-8.612-4.306-4.308.718-4.308 25.122-4.308 31.581 0 6.46 1.437 17.944 5.025 22.25 3.59 4.306 6.46 10.766 10.049 11.484s13.637-14.355 13.637-14.355 1.435-14.354-.719-17.944c-2.153-3.588-6.459-5.74-6.459-5.74z" class="fil1 str0"/><path id="path1926" d="M1433.44 726.561c23.686 13.638 20.816 32.3 20.098 38.76-.719 6.459 0 10.765 0 10.765s10.048 10.049 14.355 16.508c4.306 6.46 16.507 25.122 16.507 25.122l-4.306 4.306s-17.944-12.92-25.121-21.532c-7.177-8.614-38.758-60.29-38.758-60.29z" class="fil1 str0"/><path id="path1929" d="m1373.87 964.854-17.943-252.819m17.943 252.819z" class="fil4 str0"/><path id="path1905" d="m1436.1 960.737-62.138-.056c0-1.712 8.447-210.04 8.447-221.532s-1.71-20.294.734-22.984c2.446-2.69 24.208-1.956 29.098 0s19.804 6.603 21.027 9.292-2.933 18.827-2.933 24.451 6.356 20.783 5.868 28.606c-.49 7.825 6.373 88.395 6.373 93.774 0 6.638-5.445-3.406-7.903-.231-2.951 3.81 8.605 85.451 1.427 88.68z" class="fil1 str0"/><g id="g1911"><path id="path1904" d="M1400.26 697.583s-.733 15.404-.733 19.561 6.845 11.247 11.247 11.98c4.4.734 9.047-4.156 8.558-11.003-.49-6.845-2.69-5.868-2.69-13.936 0-8.07-1.467-13.938-1.467-13.938z" class="fil1 str0"/><path id="path1899" d="M1397.08 679.245c-1.222 6.846-.98 18.093-.246 20.783.735 2.69.735 10.025 5.136 10.758 4.4.734 11.736-8.802 13.938-12.959 2.2-4.156 3.177-9.291 3.177-9.291l-11.735-17.116z" class="fil1 str0"/><path id="path1902" d="m1397.57 703.695 6.602-.489m-6.602.489z" class="fil1 str0"/><path id="path1903" d="M1404.41 688.78h5.135m-5.135 0z" class="fil1 str0"/><path id="path1898" d="M1395.86 679.489c-2.2-4.646.733-13.694 9.047-13.45 8.313.246 17.359 12.226 17.359 18.339 0 6.114-1.71 11.736-3.178 11.736s-8.313-19.316-13.937-19.56-5.135 3.178-9.291 2.935z" class="fil1 str0"/></g><path id="path1906" d="M1411.75 751.375c-12.47 24.45-22.005 33.008-26.407 33.254-4.402.243-10.025-.49-10.025-.49l2.484 50.739 35.678.945m-1.73-84.448z" class="fil1 str0"/><path id="path1907" d="M1422.51 752.108c-12.226 48.412-49.88 73.841-49.88 73.841l4.663 75.378 37.035-36.741m8.182-112.478z" class="fil1 str0"/><path id="path1908" d="M1416.4 788.541c-10.025 78.243-44.5 65.772-44.5 65.772l1.904 69.353c28.778-6.901 30.931-29.869 30.931-29.869s10.048 2.87 17.226-4.307.718-30.862 2.87-41.63c2.154-10.765 2.872-22.249 2.872-22.249m-11.303-37.07z" class="fil1 str0"/><path id="path1919" d="M1424.83 794.029c-2.871 12.203-5.743 38.04-5.743 38.04m5.743-38.04z" class="fil4 str0"/><path id="path1920" d="M1384.63 833.506c12.2-5.743 27.274-44.502 27.274-44.502m-27.274 44.502z" class="fil4 str0"/><path id="path1921" d="M1415.5 862.217c-1.435 7.894.718 18.66.718 18.66m-.718-18.66z" class="fil4 str0"/><path id="path1922" d="M1416.21 913.894c.717-17.944-1.436-20.098-1.436-20.098m1.436 20.098z" class="fil4 str0"/><path id="path1923" d="M1421.24 743.07c4.306-7.179 5.023-20.098 5.023-20.098m-5.023 20.098z" class="fil4 str0"/><path id="path1925" d="M1437.03 871.546c-7.896-3.588-12.202-6.46-12.202-6.46m12.202 6.46z" class="fil4 str0"/></g><g id="g1775"><path id="path1773" d="M1336.12 1015.2s11.11-9.027 13.887-13.194c2.778-4.166 10.416-17.36 10.416-17.36l-19.442-20.135s-14.583 18.053-14.583 21.524c0 3.473 9.722 29.165 9.722 29.165z" class="fil1 str0"/><path id="path1774" d="M1333.34 917.295s24.305-20.137 26.387-24.998c2.083-4.86 2.777-22.22 2.777-22.22l-11.803-2.778s-4.861 4.167-11.11 7.64c-6.251 3.47-15.277 4.165-15.277 4.165z" class="fil1 str0"/><path id="path1764" d="M1316.51 743.059s.319-7.967.477-11.63c.16-3.665 5.26-8.287 5.26-8.287s6.054 5.896 6.373 8.126c.319 2.232.477 13.226.477 13.226z" class="fil1 str0"/><path id="path1760" d="m1307.11 1023.77 4.33-233.831 25.12.867 3.46 234.694z" class="fil1 str0"/><path id="path1765" d="m1331.6 1026.02-2.22-243.656m2.22 243.656z" class="fil4 str0"/><path id="path1769" d="m1336.04 1026.02-.443-243.656m.443 243.656z" class="fil4 str0"/><path id="path1767" d="m1318.28 1027.35-1.775-245.876m1.775 245.876z" class="fil4 str0"/><path id="path1766" d="M1324.94 1026.9c.443-2.22-1.776-245.875-1.776-245.875m1.776 245.875z" class="fil4 str0"/><path id="path1768" d="m1310.74 1027.79-.444-246.762m.444 246.762z" class="fil4 str0"/><path id="path1759" d="M1301.92 1041.09v-14.72l4.33-3.46h31.17l7.8 4.33-1.73 15.58z" class="fil1 str0"/><path id="path1763" d="m1308.07 755.487 4.62-7.33-9.24-8.126 37.44-.636-8.12 8.762 3.66 7.171z" class="fil1 str0"/><path id="path1762" d="m1311.26 778.114 6.853-6.692s-15.137-14.341-17.209-14.341-3.346 3.347-5.576 3.187c-2.232-.16-3.507-1.115-3.507-3.506s2.231-3.504 5.578-3.346l49.076-.638c3.505.16 4.62 2.232 4.46 3.984-.159 1.753-2.548 3.506-4.62 3.346s-2.71-3.505-4.94-3.346c-2.23.16-11.79 13.385-11.79 14.341l7.966 7.648z" class="fil1 str0"/><path id="path1770" d="M1305.92 786.441c-6.81 8.332-11.611 12.183-11.465 23.92 0 12.5 17.063 31.48 29.783 42.927 12.862 11.572 35.54 19.827 35.54 30.008 0 9.893-1.965 11.154-4.412 14.32 2.015-2.303 12.693-9.484 12.693-26.15s-13.887-34.718-29.858-44.44c-15.971-9.72-35.413-22.914-35.413-29.858-.18-6.006 3.132-10.727 3.132-10.727z" class="fil1 str0"/><path id="path1772" d="M1308.83 890.883c-.239 6.826 0 12.524-.482 18.08-.607 6.561 20.138 20.136 28.47 28.468s29.163 17.36 30.552 29.859c1.39 12.5-10.94 24.134-13.819 28.882 3.166-6.618-4.015-14.3-12.254-20.98-7.256-5.885-22.918-14.554-30.865-23.177-7.882-8.553-16.666-22.22-16.666-35.415 0-13.193 8.815-23.634 15.064-25.717z" class="fil1 str0"/><path id="path1761" d="m1302.73 784.089 8.76 6.452 25.42.798 8.44-7.013-8.44-5.735h-25.73z" class="fil1 str0"/></g><path id="text1791" d="m1360.05 859.923.977.863-3.192 3.604 6.795-.412 1.383 1.223-5.713.258-.746 7.212-1.303-1.154.696-6-2.185.086-2.28 2.576-.978-.863zm-4.074-3.966q1.404 1.242 1.524 2.668t-.628 2.442l-.976-.863q.467-.862.338-1.72-.124-.856-1.018-1.648-1.093-.967-2.449-.794-1.347.171-2.75 1.757-1.15 1.299-1.263 2.644-.105 1.343 1.098 2.41 1.108.979 2.44.642.703-.177 1.5-.773l.977.864q-1.166 1.054-2.6 1.191-1.721.172-3.217-1.151-1.288-1.14-1.472-2.697-.24-2.051 1.667-4.206 1.448-1.635 3.241-1.915 1.943-.309 3.588 1.149m-7.937-7.028q1.958 1.736 1.785 3.825-.133 1.633-1.488 3.163-1.466 1.655-3.278 2.008-2.126.415-3.953-1.203-1.707-1.51-1.685-3.502.092-1.858 1.562-3.518 1.328-1.5 3.017-1.908 2.168-.522 4.04 1.135m-6.02 7.004q1.322 1.173 2.749.748 1.437-.427 2.527-1.66 1.155-1.302 1.174-2.703.024-1.397-1.157-2.444-1.149-1.015-2.573-.867-1.42.144-2.779 1.677-1.087 1.23-1.216 2.622-.12 1.393 1.274 2.627m1.732-10.442-.78.881-2.49-2.206-5.767 6.513-1.016-.902 5.765-6.511-2.49-2.205.779-.881zm-15.881-5.128q-.523.66-.609 1.282-.151 1.178 1.106 2.292.564.497 1.17.746 1.172.482 1.884-.322.534-.605.385-1.195-.16-.592-.811-1.498l-.801-1.114q-.784-1.09-.957-1.718-.294-1.086.521-2.008.883-.995 2.138-1.025t2.52 1.09q1.16 1.029 1.472 2.31.32 1.28-.77 2.513l-.941-.834q.448-.659.484-1.196.054-.981-1.043-1.955-.886-.783-1.603-.754-.717.027-1.154.523-.482.542-.251 1.195.154.424.987 1.592l.828 1.155q.599.835.743 1.493.245 1.14-.627 2.129-1.09 1.228-2.452.962-1.36-.26-2.54-1.306-1.38-1.221-1.536-2.617-.16-1.39.915-2.574zm-2.991-11.581 5.39 4.773-.803.906-4.412-3.907-1.988 2.244 4.082 3.613-.757.856-4.082-3.614-2.22 2.506 4.49 3.975-.78.88-5.465-4.84zm-6.417-5.68-3.45 8.176 7.672-4.438 1.124.994-9.244 5.004-1.061-.94 3.852-9.776zm-3.215-2.847 1.011.895-6.544 7.393-1.011-.896zm-5.923-5.245 1 .887-5.764 6.512 3.745 3.315-.781.881-4.745-4.202z" class="fil3"/><path id="text1794" d="m1340.62 951.483 1.182 1.048-1.568 9.294 5.302-5.988.952.842-6.546 7.391-1.123-.993 1.51-9.338-5.3 5.983-.955-.845zm-2.632-2.33 1.01.895-6.544 7.392-1.012-.895zm-7.22 1.391 1.77-4.26-4.085 2.21zm2.218-5.82 1.132 1.002-3.864 9.767-1.096-.972 1.21-2.877-2.922-2.59-2.762 1.507-1.026-.91zm-9.058-1.979q.705.625 1.362.703.661.084 1.312-.65.7-.793.38-1.586-.172-.421-.687-.876l-2.446-2.166-2.235 2.526zm-.317-6.323 3.421 3.03q.846.748 1.177 1.48.622 1.395-.506 2.669-.587.664-1.239.842a2.6 2.6 0 0 1-1.366.002q.277.559.24 1.037-.033.484-.578 1.15l-.842 1.022q-.361.435-.488.691-.222.434-.078.738l-.148.167-1.228-1.087q.035-.14.14-.317.103-.18.465-.63l1.032-1.286q.606-.755.32-1.448-.165-.388-.78-.933l-2.28-2.018-2.806 3.17-1.002-.887zm-4.688-4.492q1.044.924 1.446 1.999.589 1.553-.447 3.222l-.992-.878q.537-.97.293-1.841-.24-.876-1.104-1.643-1.027-.909-2.413-.763-1.383.151-2.731 1.676-1.169 1.319-1.324 2.66-.152 1.339 1.156 2.498 1.002.886 2.168.886 1.176 0 2.342-1.284l-2.315-2.05.734-.831 3.246 2.874-3.502 3.955-.645-.57.601-1.165q-1.002.108-1.587-.022-.99-.212-2.006-1.11-1.313-1.164-1.505-2.853-.086-1.98 1.56-3.842 1.645-1.857 3.622-2.062 1.884-.201 3.403 1.144m-.156-.156" class="fil3"/><path id="text1797" d="M1490.2 832.63q.587.688 1.228.907 1.211.406 2.646-.69.645-.492 1.032-1.078.75-1.136.05-2.056-.527-.69-1.181-.655-.655.047-1.75.544l-1.34.615q-1.314.601-2.011.653-1.208.085-2.01-.967-.868-1.14-.637-2.467.228-1.33 1.672-2.432 1.327-1.014 2.743-1.075 1.418-.072 2.492 1.334l-1.075.82q-.604-.61-1.161-.758-1.027-.262-2.28.694-1.01.77-1.13 1.535-.117.762.312 1.325.475.62 1.21.514.48-.076 1.886-.711l1.389-.633q1.005-.46 1.73-.475 1.256-.023 2.114 1.104 1.07 1.403.51 2.786-.559 1.38-1.908 2.41-1.575 1.2-3.08 1.077-1.5-.12-2.526-1.501zm-12.837.75 6.152-4.695.79 1.034-5.04 3.844 1.956 2.563 4.66-3.555.746.977-4.66 3.556 2.183 2.86 5.125-3.91.768 1.005-6.241 4.761zm-8.544 6.52 1.35-1.031 9.481 3.585-5.217-6.838 1.086-.828 6.44 8.441-1.28.977-9.541-3.53 5.213 6.832-1.091.832zm-3.007 2.292 1.156-.88 6.44 8.44-1.154.882zm-10.147 7.744 1.637-1.25 7.87 5.287-3.037-8.974 1.62-1.236 6.44 8.44-1.085.83-3.802-4.984a55 55 0 0 1-.642-.864 76 76 0 0 0-.966-1.29l3.026 8.956-1.133.864-7.857-5.27.198.26q.236.31.734.94.5.619.728.916l3.8 4.983-1.09.832z" class="fil3"/><path id="text1800" d="m1467.74 951.25 1.143-.873 5.674 7.435 4.275-3.262.767 1.006-5.418 4.134zm-3.006 2.293 1.155-.882 6.44 8.44-1.153.883zm-5.937 4.167q2.234-1.706 4.405-1.088 1.693.48 3.026 2.227 1.444 1.891 1.44 3.875-.005 2.33-2.09 3.922-1.947 1.485-4.045 1.05-1.94-.483-3.387-2.38-1.308-1.711-1.387-3.578-.1-2.397 2.038-4.027m6.138 7.807q1.512-1.155 1.36-2.746-.152-1.604-1.225-3.012-1.136-1.488-2.61-1.799-1.469-.317-2.819.715-1.31.997-1.449 2.532-.144 1.527 1.194 3.281 1.07 1.401 2.512 1.827 1.446.416 3.037-.798m-6.105-7.833" class="fil3"/><g id="g1723"><path id="path1627" d="m1212.19 1036.01 397.043.59-42.35 62.349s-160.582 58.82-167.64 57.643c-7.06-1.175-168.818-58.82-168.818-58.82z" class="fil1 str0"/><path id="path1634" d="M1362.18 971.311v88.819l8.83-2.35v-87.645z" class="fil1 str0"/><path id="path1635" d="m1442.18 970.135 1.76 89.995h8.83l-1.18-89.995z" class="fil1 str0"/><path id="path1630" d="m1353.95 1058.37.59 15.29h104.11l-.59-15.29z" class="fil1 str0"/><path id="path1629" d="M1348.65 1067.19v14.12l114.12.59-.59-14.71z" class="fil1 str0"/><g id="g1700"><path id="path1653" d="M1490.27 1105.81v25.38l-19.22-1.72.25-30.31z" class="fil1 str0"/><path id="path1652" d="m1339.49 1101.13-.74 26.86-17-8.87 1.97-16.51z" class="fil1 str0"/><path id="path1651" d="M1322.49 1112.47c-.985-13.058 3.943-19.71 7.884-19.71s142.159-.493 150.043 0c7.884.492 9.854 8.13 9.854 12.319v14.043s-.797-7.6-17.059-8.586c-16.26-.985-6.346 3.411-68.185 2.92-61.841-.494-60.363-2.911-69.725-3.65-9.362-.74-11.825.2-12.812 2.664z" class="fil1 str0"/><path id="text1660" d="M1471.68 1095.75q2.333 0 3.374 1.92.806 1.486.806 4.072-.001 2.449-.731 4.052-1.056 2.3-3.457 2.3-2.165 0-3.222-1.88-.88-1.57-.881-4.212 0-2.048.528-3.517.99-2.735 3.583-2.735m-.015 10.968q1.173-.001 1.87-1.04.697-1.042.696-3.877 0-2.049-.503-3.366-.503-1.326-1.955-1.326-1.334 0-1.956 1.26-.612 1.249-.613 3.69.001 1.84.395 2.954.604 1.705 2.066 1.705" class="fil3"/><path id="path1677" d="M1459.75 1104.86q.068 1.25.966 1.73.46.25 1.04.25 1.083 0 1.846-.898.764-.906 1.083-3.666-.504.796-1.251 1.123a4 4 0 0 1-1.595.319q-1.736 0-2.752-1.082-1.006-1.083-1.006-2.786 0-1.635.998-2.879.998-1.241 2.946-1.24 2.625 0 3.625 2.365.554 1.301.554 3.255 0 2.209-.663 3.91-1.1 2.839-3.726 2.838-1.761-.001-2.677-.923-.915-.923-.915-2.316zm2.291-2.467a2.56 2.56 0 0 0 1.636-.589q.748-.594.748-2.072-.001-1.325-.671-1.972-.664-.655-1.695-.654-1.11 0-1.763.747-.645.736-.646 1.98 0 1.175.57 1.871.572.69 1.821.689" class="fil3"/><path id="path1675" d="M1452.58 1100.78q.999 0 1.56-.553.563-.563.562-1.334 0-.673-.537-1.233-.535-.564-1.636-.564-1.09 0-1.578.564a1.95 1.95 0 0 0-.485 1.316q0 .848.628 1.326.629.479 1.486.478m.092 5.95q1.049 0 1.738-.562.696-.57.695-1.695 0-1.167-.713-1.77-.714-.605-1.829-.605-1.083 0-1.771.621-.68.614-.68 1.704 0 .94.622 1.628.63.68 1.938.68m-2.148-5.371q-.63-.27-.982-.63-.662-.67-.662-1.745 0-1.342.972-2.308.975-.965 2.761-.965 1.73 0 2.71.915.983.907.983 2.123 0 1.125-.571 1.821-.319.394-.99.772.747.344 1.174.79.797.838.797 2.18 0 1.587-1.065 2.695-1.066 1.098-3.012 1.098-1.755 0-2.97-.948-1.21-.956-1.21-2.769 0-1.065.521-1.837.52-.781 1.544-1.192" class="fil3"/><path id="path1672" d="M1439.98 1099.26v-1.157q1.637-.16 2.283-.528.646-.378.965-1.772h1.192v11.967h-1.611v-8.51z" class="fil3"/><path id="path1671" d="M1368.41 1104.56q.068 1.251.965 1.728a2.13 2.13 0 0 0 1.04.254q1.084 0 1.847-.899.764-.905 1.083-3.667-.504.797-1.251 1.124a4 4 0 0 1-1.595.32q-1.735 0-2.752-1.083-1.005-1.084-1.006-2.786 0-1.637.998-2.878t2.946-1.243q2.625 0 3.625 2.367.554 1.3.554 3.255 0 2.208-.663 3.91-1.1 2.838-3.726 2.838-1.762-.001-2.677-.923-.915-.923-.915-2.317zm2.291-2.467q.9 0 1.637-.587.747-.596.747-2.073-.001-1.326-.671-1.971-.665-.655-1.695-.655-1.11 0-1.763.747-.645.737-.645 1.98 0 1.175.57 1.871.571.689 1.82.688" class="fil3"/><path id="path1669" d="M1361.59 1095.39q2.014 0 2.803 1.049.797 1.04.797 2.148h-1.494q-.134-.713-.426-1.116-.547-.755-1.654-.755-1.267 0-2.015 1.174-.747 1.168-.83 3.349.521-.765 1.308-1.141a3.8 3.8 0 0 1 1.611-.337q1.513.001 2.635.965 1.125.967 1.126 2.88 0 1.635-1.067 2.902-1.065 1.26-3.037 1.259-1.688 0-2.912-1.275-1.226-1.283-1.226-4.314 0-2.24.546-3.801 1.049-2.987 3.835-2.987m-.109 11.034q1.192 0 1.78-.796.596-.807.596-1.897-.001-.923-.53-1.754-.529-.84-1.921-.839-.975 0-1.712.647-.73.646-.73 1.946 0 1.142.663 1.922.67.77 1.854.77" class="fil3"/><path id="path1667" d="M1351.67 1100.48q.998 0 1.56-.553.562-.563.562-1.334 0-.672-.537-1.235-.536-.562-1.637-.562-1.09 0-1.577.562a1.96 1.96 0 0 0-.486 1.318q0 .848.63 1.326.627.478 1.485.478m.091 5.95q1.05 0 1.737-.563.698-.57.697-1.694 0-1.168-.713-1.771-.714-.604-1.83-.604-1.08 0-1.77.621-.68.612-.68 1.704 0 .94.62 1.627.63.679 1.939.68m-2.148-5.37q-.63-.27-.98-.63-.666-.671-.665-1.745 0-1.343.974-2.308.975-.965 2.76-.965 1.73 0 2.712.915.981.906.981 2.123 0 1.124-.571 1.821-.319.394-.99.771.747.345 1.175.79.797.838.797 2.182 0 1.585-1.066 2.694-1.065 1.098-3.012 1.098-1.755 0-2.97-.948-1.209-.957-1.209-2.77 0-1.064.521-1.836.52-.781 1.543-1.192" class="fil3"/><path id="path1664" d="M1339.08 1098.95v-1.157q1.637-.16 2.282-.528.647-.379.965-1.772h1.192v11.967h-1.611v-8.51z" class="fil3"/></g><path id="path1628" d="m1243.95 1076.6 325.28 1.77-5.29 12.35-305.28.59z" class="fil1 str0"/><path id="path1631" d="m1356.3 967.782.59 6.47h20.58l.59-7.058z" class="fil1 str0"/><path id="path1632" d="m1437.47 967.194.59 7.058h17.65l.59-7.058z" class="fil1 str0"/><path id="path1633" d="m1362.18 957.783-.59 9.411h88.24v-8.823z" class="fil1 str0"/><path id="path1638" d="M1416.89 1006.02c-1.176-6.471-4.118-35.292-14.118-35.882-9.999-.588-12.939 7.648-12.939 7.648s14.117 1.763 12.94 7.646c-1.176 5.88-7.059 20.588-10 22.351-2.94 1.765 18.823-1.176 24.117-1.763z" class="fil1 str0"/><path id="path1639" d="m1396.89 1003.07-2.36 40 28.24.59-1.18-38.82z" class="fil1 str0"/><path id="path1637" d="M1371.01 1033.48s-.52-24.697 1.175-31.586c1.178-7.058 5.294-11.764 12.353-11.176s19.412 13.529 19.412 13.529 18.823-17.058 25.881-16.47c8.081 2.326 12.22 8.064 12.986 14.658.196 5.126.615 31.341.615 31.341s-14.672-16.587-19.484-18.353c-4.117-1.177-12.352-2.352-12.352-2.352l-1.123 32-6.523-.238s-.59-15.293-1.178-21.175c-.587-5.882-2.94-11.177-2.94-11.177s-10.588 5.295-14.117 9.411c-4.258 3.881-14.705 11.588-14.705 11.588z" class="fil1 str0"/><g id="g1712"><path id="path1640" d="m1371.58 1035.78 70.604.23v29.41c-.554 25.89-35.663 62.374-35.665 62.375 0 0-35.538-33.542-35.508-63.55-.59-30 .569-28.465.569-28.465z" class="fil1 str0"/><path id="path1641" d="m1381.5 1069.86.01 26.48 5.01 7.81-.02-34.29z" class="fil3"/><path id="path1642" d="m1392.5 1069.86.09 42.45 4.91 5.91-.01-48.36z" class="fil3"/><path id="path1643" d="m1403.49 1069.86.02 54.98 3 2.96 2.97-3.28v-54.66z" class="fil3"/><path id="path1644" d="m1415.48 1069.86.05 47.65 4.96-6.26-.02-41.39z" class="fil3"/><path id="path1645" d="m1426.47 1069.86.07 33.03 4.92-7.68.01-25.35z" class="fil3"/><path id="path1646" d="M1371.51 1069.86h5v15.81z" class="fil3"/><path id="path1647" d="m1436.51 1069.86.02 15.91 5.35-15.91z" class="fil3"/><path id="path1649" d="m1371.01 1035.25 71.17.76v28l-71.17.24z" class="fil1 str0"/></g><path id="_132303184" d="m1406.63 1038.49 2.952 9.082h9.548l-7.726 5.612 2.952 9.082-7.726-5.613-7.726 5.613 2.952-9.082-7.726-5.613h9.548zm-1.476 4.54" class="fil3"/></g><g id="g1566"><path id="path1547" d="m1584.98 1020.62 2.48-95.83h6.61l-.83 96.66z" class="fil1 str0"/><path id="path1548" d="M1594.89 876.874v26.437c0 7.435-11.566 18.174-10.74 23.958s8.262 4.956 10.74 3.304c2.48-1.653 15.698-23.959 15.698-37.177s1.651-33.046-1.652-33.871c-3.306-.827-14.872 12.39-14.872 12.39z" class="fil1 str0"/><path id="path1543" d="M1541.19 1004.1s-1.654 31.394-1.654 39.656c0 8.261-.825 17.349-6.609 22.305-5.783 4.957-10.74 3.306-12.392 6.61s.827 5.783.827 5.783l37.177-.827s-1.653-29.74-.826-40.481c.826-10.74 8.26-27.263 4.13-30.567-4.13-3.306-17.35-3.306-20.653-2.479z" class="fil1 str0"/><path id="path1544" d="M1502.36 995.014s19.827 15.697 19.002 21.48c-.827 5.782-9.915 12.392-6.61 15.696s5.783 2.48 5.783 2.48l27.264-24.786-31.394-25.61z" class="fil1 str0"/><path id="path1546" d="M1566.8 1007.41s8.262 11.567 19.002 11.567 24.785-29.743 24.785-29.743-4.958 40.482-23.959 39.656-19.828-13.22-19.828-21.48z" class="fil1 str0"/><path id="path1545" d="M1563.5 907.441c4.957-4.13 6.61-28.089 6.61-28.089l7.434-14.044s12.393 14.044 18.176 13.217 14.045-.827 14.045-5.782c0-4.958 2.478-12.393-1.652-16.524-4.13-4.13-25.61-21.48-29.742-23.959-4.13-2.478-47.09-7.435-50.395-7.435s-16.524 8.262-18.176 15.697c-1.651 7.436-4.957 32.22-4.957 38.83s.707 16.66.707 16.66l12.512-8.398 4.13 11.566z" class="fil1 str0"/><path id="path1549" d="M1519.71 828.13c9.087 9.913 11.567 35.525 11.567 35.525s2.477-14.045 9.087-19.003c6.61-4.956 22.306-5.782 22.306-13.217s-17.349-9.914-22.306-9.914-13.219.826-20.654 6.609z" class="fil1 str0"/><path id="path1550" d="M1531.28 824c0 8.26 3.305 11.567 7.435 12.392 4.13.827 14.045-4.131 13.219-8.262-.827-4.13-20.654-4.13-20.654-4.13z" class="fil1 str0"/><path id="path1551" d="M1534.59 823.173s0 9.914 4.956 9.087c4.957-.825 9.087-10.74 9.087-10.74z" class="fil1 str0"/><path id="path1554" d="M1531.67 783.926c-.306 5.825-.92 12.573-1.84 13.799-.92 1.227-3.988 6.133-4.293 8.586s2.76 2.148 2.76 2.148-.613 11.347-.92 13.493 4.906.305 7.053 3.986 2.147 8.893 3.373 7.973 5.827-5.52 8.28-8.28 6.133-.613 7.054-4.292c.92-3.68 1.84-31.28 1.84-31.28z" class="fil1 str0"/><path id="path1542" d="M1551.11 1004.93c-9.087.827-12.392-.826-13.219-4.956-.825-4.131-.825-30.57-2.478-39.655-1.652-9.088-4.13-13.22-4.13-13.22s-21.48 15.698-21.48 23.133c0 7.436 6.609 13.218 6.609 13.218l-13.22 11.567s-27.263-15.697-27.263-24.785 28.09-39.656 33.046-46.265c4.959-6.61 6.61-25.61 11.567-26.437 4.958-.826 35.525 1.654 40.482 5.784 4.956 4.13 15.697 22.305 14.871 33.872s-4.957 9.914-5.783 14.045c-.826 4.13 0 7.434-.826 13.218-.827 5.783-4.957 1.652-4.957 6.61 0 4.955 1.651 26.436-.827 30.568-2.478 4.13-4.13 3.303-12.392 3.303z" class="fil1 str0"/><path id="path1552" d="M1535.41 775.256c-5.783 4.958-9.089 6.61-7.435 9.915 1.652 3.304 14.87 4.13 16.522 8.261 1.653 4.131 0 10.74 0 10.74l6.61-1.651v19s16.523-13.218 14.87-26.437c-1.651-13.218-18.174-14.87-23.132-15.696-4.957-.826-4.957-1.653-7.435-4.132z" class="fil1 str0"/><path id="path1553" d="M1504.68 897.391c.306 4.292 1.227 26.986-.307 30.36-1.533 3.372-4.293 8.893-.614 13.186 3.681 4.293 7.973 6.132 9.814 2.76 1.84-3.374-.613-19.013 1.533-27.907s2.454-24.84.92-26.986c-1.533-2.147-10.733-1.227-11.346 8.587z" class="fil1 str0"/><path id="path1555" d="M1531.36 947.069c-4.907-9.813-4.294-19.625-4.294-19.625m4.294 19.625z" class="fil4 str0"/><path id="path1556" d="m1518.48 889.11.307-32.813m-.307 32.813z" class="fil4 str0"/><path id="path1557" d="M1570.31 879.604s-4.906-3.68-6.44-5.52-3.374-4.6-3.374-4.6m9.814 10.12z" class="fil4 str0"/><path id="path1558" d="M1589.32 876.23c-.307-15.639 19.626-18.706 19.626-18.706m-19.626 18.706z" class="fil4 str0"/><path id="path1559" d="m1527.68 813.978 4.906.307m-4.906-.307z" class="fil4 str0"/><path id="path1560" d="m1530.44 794.965 7.054 6.135m-7.054-6.135z" class="fil4 str0"/></g><g id="g1607"><path id="path1603" d="M1251.25 800.79s-2.588-9.705-.324-11.646c2.266-1.941 16.823-12.295 21.029-11.97 4.207.322 12.294 12.293 12.294 12.293z" class="fil1 str0"/><path id="path1588" d="M1259.51 831.295s-53.509 39.239-54.104 49.347c-.594 10.106 23.783 39.238 23.783 39.238l10.106-9.513s-1.188-7.133-3.566-13.674c-2.378-6.539-7.73-13.674-7.73-13.674s1.19.595 7.135-1.783 10.107-5.352 10.107-5.352-1.783 11.891 1.19 18.431c2.971 6.541 12.485 22.592 12.485 22.592l35.078-2.377s1.189-46.374.594-57.076c-.594-10.702-13.674-30.916-13.674-30.916z" class="fil1 str0"/><path id="path1595" d="M1267.84 1008.47s14.27 10.108 19.62 14.864 7.134 7.179 7.134 7.179l.577 5.395-14.84-.05-15.463-17.874z" class="fil1 str0"/><path id="path1592" d="M1260.97 830.324c-.646 2.587 14.593 11.672 18.755 16.428s13.08 11.297 13.08 11.297.593-7.73-4.757-17.837c-5.35-10.108-3.086-11.725-5.464-12.319-2.377-.595-23.914-.91-21.614 2.431z" class="fil1 str0"/><path id="path1590" d="M1255.95 923.448s-9.513 39.239-10.702 70.75 6.54 63.02 6.54 63.02l22.592-2.972v-37.455s42.212-43.401 42.212-49.942-23.187-38.05-21.998-42.212-.594-10.107-.594-10.107z" class="fil1 str0"/><path id="path1591" d="M1274.97 990.631s6.103-18.972 7.886-24.322c1.784-5.352 2.326-9.514 2.326-9.514s7.03 5.892 6.434 9.46c-.594 3.569-8.917-1.189-16.646 24.376z" class="fil1 str0"/><path id="path1605" d="M1241.22 1004.6s-.647-17.793-1.94-22.969c-1.296-5.178-6.147-20.059-6.147-31.382s2.264-19.088 9.381-28.145c7.118-9.06 14.559-11.971 14.559-11.971s7.117 0 17.792-.324c10.677-.322 20.382-.97 20.382-.97l-.323 11.323s-13.588 3.882-22.323 3.882-18.117-1.94-18.117-1.94-14.882 14.234-14.235 27.821c.648 13.589 4.53 33.323 4.206 38.823-.322 5.5-3.235 15.852-3.235 15.852z" class="fil3 str0"/><path id="path1593" d="M1258.65 831.67s-.918-14.05.272-19.995 6.54-20.215 6.54-20.215l20.808-.594-.594 27.943-4.162-.594 1.783 9.512s-7.134 3.569-13.675 4.163c-6.538.594-10.972-.22-10.972-.22z" class="fil1 str0"/><path id="path1586" d="M1262.71 810.058c-13.08 2.972-19.846 8.75-24.008 4.59s4.756-16.648 23.781-24.376c19.025-7.73 36.862-3.568 38.052 0 1.188 3.567-8.325 10.107-13.08 10.701-4.757.594-13.676 0-17.243 2.378s-7.502 6.707-7.502 6.707z" class="fil1 str0"/><path id="path1587" d="M1258.39 824.864c-7.35.36-8.813-6.901-5.413-12 3.568-5.352 10.108-14.864 17.836-17.242 7.73-2.378 14.27 0 14.864 4.161 1.415 4.37.246 7.498.246 7.498s-10.975-8.544-15.704-3.93c-4.162 4.757-4.757 13.674-8.323 17.836-1.165 1.746-1.48 3.583-3.506 3.677z" class="fil1 str0"/><path id="path1594" d="M1251.19 911.557c.594-10.107 9.302-12.485 11.891-12.485 2.264 0 5.945 11.296 5.945 19.025 0 7.73-4.757 23.187-8.918 23.781-4.162.594-2.972-20.214-2.972-20.214h-4.758z" class="fil1 str0"/><path id="path1596" d="m1252.38 1056.62-.594 21.404 46.374-1.19s1.19-3.566-1.784-6.54c-2.973-2.972-16.051-4.161-18.43-8.322-2.379-4.163-2.973-6.541-2.973-6.541z" class="fil1 str0"/><path id="path1598" d="M1272.6 831.201c8.735 5.176 19.088 20.704 19.735 23.293.646 2.587.646 3.558.646 3.558m-20.381-26.851z" class="fil4 str0"/><path id="path1599" d="M1226.01 916.284c4.205-9.058 12.293-8.734 12.293-8.734s11.323 5.824 11 8.734c-.325 2.913-9.06-.322-9.707 1.618-.647 1.942 4.853 8.088 1.942 11-2.911 2.911-12.618-5.823-15.528-12.618z" class="fil1 str0"/><path id="path1601" d="m1282.4 822.954-3.657-.489m4.853.647z" class="fil4 str0"/><path id="path1602" d="M1274.54 1016.9c.215-9.274-1.186-19.195.647-27.823m-.647 27.823z" class="fil4 str0"/><path id="path1604" d="M1281.66 809.687c0-1.697-1.448-3.074-3.235-3.074s-3.235 1.377-3.235 3.074 1.448 3.072 3.235 3.072 3.235-1.375 3.235-3.072" class="fil3"/><path id="path1606" d="M1285.22 956.725c1.942-11.97.646-24.263.646-24.263m-.646 24.263z" class="fil4 str0"/></g><path id="path919" d="M1704.59 891.039c0 164.388-133.604 297.804-298.224 297.804-164.617 0-298.221-133.416-298.221-297.804 0-164.389 133.604-297.806 298.221-297.806 164.62 0 298.224 133.416 298.224 297.806zm-59.291-.941c0 132.379-107.041 239.818-238.931 239.818s-238.932-107.44-238.932-239.818c0-132.38 107.042-239.817 238.932-239.817s238.93 107.438 238.93 239.817z" class="fil1 str0"/><path id="text1951" d="M1482.86 612.633q4.686 1.719 7.437 4.786 4.003 4.422 2.717 11.348l-4.458-1.637q.522-3.942-1.429-6.534-1.941-2.614-5.836-4.045-4.617-1.695-9.057.604-4.418 2.31-6.937 9.168-2.177 5.93-.945 10.62 1.24 4.669 7.125 6.83 4.505 1.653 8.403.13 3.93-1.536 6.14-7.352l-10.41-3.822 1.37-3.735 14.6 5.36-6.531 17.793-2.899-1.066.486-4.676q-3.21 1.673-5.333 1.999-3.58.586-8.153-1.094-5.907-2.169-8.76-7.557-2.876-6.502.198-14.877 3.067-8.353 9.406-11.624 6.03-3.13 12.866-.62" class="fil3"/><path id="path2004" d="m1248.95 652.119 4.97-2.706 29.43 16.666-13.71-25.212 4.01-2.175 16.91 31.122-4.72 2.567-29.64-16.518 13.69 25.19-4.03 2.189z" class="fil3"/><path id="path2002" d="m1222.46 672.728 3.59-3.258 23.81 26.23-3.59 3.257z" class="fil3"/><path id="path2000" d="m1174.2 721.372 4.221-5.422 29.883 10.37-17.423-26.372 4.177-5.366 27.95 21.763-2.8 3.595-16.496-12.843a196 196 0 0 1-2.806-2.246 287 287 0 0 0-4.212-3.342l17.366 26.327-2.919 3.748-29.825-10.325.856.667q1.03.8 3.17 2.406a162 162 0 0 1 3.127 2.342l16.495 12.843-2.814 3.617z" class="fil3"/><path id="path1999" d="M1151.4 757.874q3.798-8.578 11.135-10.26 5.726-1.313 12.428 1.654 7.252 3.214 10.43 9.024 3.73 6.82.185 14.824-3.31 7.473-10.143 9.565-6.451 1.703-13.728-1.518-6.57-2.91-9.798-8.243-4.141-6.846-.51-15.046m30.489 12.974q2.568-5.798-.434-10.214-3.015-4.447-8.416-6.838-5.712-2.53-10.523-1.074-4.8 1.434-7.096 6.614-2.227 5.028-.171 9.736 2.032 4.697 8.758 7.676 5.38 2.381 10.284 1.31 4.893-1.102 7.598-7.21" class="fil3"/><path id="path1996" d="m1130.93 822.231 1.29-5.442 18.91-5.972-14.22-13.829 1.3-5.468 17.49 17.902 13.89 3.296-1.11 4.669-13.89-3.296z" class="fil3"/><path id="path1994" d="m1120.85 881.05 29.11-5.28-28.4-9.387.25-5.202 29.17-6.605-28.46-8.062.26-5.251 34.93 11.007-.25 5.033-29.73 6.747 28.94 9.631-.24 5.034-35.83 7.538z" class="fil3"/><path id="path1993" d="m1134.11 975.872-6.99-23.557 4.17-1.234 5.62 18.957 10.31-3.058-4.94-16.667 4.04-1.2 4.94 16.667 15.45-4.579 1.36 4.601z" class="fil3"/><path id="path1992" d="M1149.96 1016.94q-5.707-7.444-3.666-14.69 1.59-5.656 7.407-10.114 6.296-4.827 12.917-4.829 7.775-.005 13.1 6.942 4.974 6.487 3.533 13.485-1.595 6.48-7.91 11.321-5.703 4.372-11.932 4.65-7.992.355-13.449-6.765m26-20.54q-3.859-5.033-9.173-4.514-5.347.516-10.036 4.11-4.957 3.8-5.985 8.72-1.043 4.9 2.404 9.399 3.345 4.363 8.463 4.815 5.097.466 10.934-4.009 4.67-3.578 6.08-8.396 1.376-4.823-2.687-10.124" class="fil3"/><path id="path1989" d="m1206.98 1094.86-16.95-19.48 3.27-2.85 13.88 15.95 8.12-7.06-12.84-14.75 3.09-2.69 12.84 14.75 9.06-7.88-14.12-16.23 3.19-2.77 17.18 19.76z" class="fil3"/><path id="path1987" d="m1222 1109.91 2.37-3.49 9.87 6.71 17.55-25.8 4.02 2.74-17.54 25.8 9.87 6.71-2.38 3.49z" class="fil3"/><path id="path1986" d="m1273.5 1119.64-2.787 16.312 12.52-10.99zm-3.109 22.127-4.76-2.603 5.712-37.246 4.614 2.522-1.937 11.033 12.291 6.72 8.455-7.47 4.315 2.359z" class="fil3"/><path id="path1983" d="m1297.74 1156.16 1.36-3.99 11.3 3.84 10.05-29.54 4.61 1.57-10.05 29.54 11.3 3.84-1.35 4z" class="fil3"/><path id="path1982" d="M1362 1149.34q.31-3.003-.63-5.059-1.803-3.852-7.756-4.804-2.667-.427-4.978-.016-4.474.8-5.085 4.609-.455 2.858 1.135 4.357 1.62 1.48 5.336 2.979l4.568 1.828q4.475 1.79 6.202 3.36 2.983 2.725 2.286 7.081-.754 4.715-4.498 7.217-3.749 2.5-9.723 1.547-5.501-.88-8.907-4.16-3.436-3.259-2.502-9.093l4.452.712q-.091 2.868.835 4.553 1.73 3.087 6.92 3.915 4.19.671 6.305-.798 2.116-1.469 2.49-3.802.409-2.573-1.543-4.106-1.284-.985-6.052-2.92l-4.727-1.904q-3.418-1.377-5.122-3.09-2.94-2.985-2.196-7.652.93-5.81 5.568-7.633 4.614-1.826 10.21-.932 6.523 1.044 9.68 4.968 3.164 3.9 2.185 9.554z" class="fil3"/><path id="path1980" d="m1463.33 1171.03-25.42 4.55-.77-4.27 20.82-3.73-1.9-10.59-19.25 3.45-.72-4.03 19.25-3.45-2.12-11.82-21.17 3.79-.75-4.15 25.78-4.62z" class="fil3"/><path id="path1978" d="m1520.1 1153.92-4.6 1.52-4.59-13.9-17.49 5.78 4.59 13.9-4.6 1.52-11.12-33.63 4.6-1.52 5.2 15.73 17.49-5.78-5.2-15.73 4.6-1.52z" class="fil3"/><path id="path1977" d="m1545.09 1141.13-2.25-3.57 10.11-6.35-16.61-26.42 4.12-2.59 16.61 26.42 10.11-6.36 2.24 3.58z" class="fil3"/><path id="path1976" d="m1629.88 1071.08-16.29 18.39-3.25-2.87 13.11-14.81-8.05-7.12-11.52 13.01-3.16-2.8 11.52-13.01-12.05-10.68 3.18-3.59z" class="fil3"/><path id="path1975" d="M1653.18 1043.66q-6.22 7.02-13.722 6.4-5.853-.482-11.342-5.343-5.94-5.26-7.202-11.759-1.489-7.63 4.314-14.183 5.42-6.12 12.565-6.04 6.665.33 12.622 5.606 5.38 4.765 6.839 10.824 1.872 7.78-4.074 14.495m-25.123-21.606q-4.204 4.746-2.681 9.865 1.526 5.151 5.948 9.068 4.675 4.142 9.701 4.212 5.01.089 8.769-4.153 3.644-4.117 3.112-9.225-.513-5.095-6.019-9.969-4.405-3.9-9.404-4.368-4.997-.43-9.426 4.57" class="fil3"/><path id="path1972" d="m1687.31 949.566-1.28 4.625-30.07-8.336-4.79 17.288-4.07-1.127 6.07-21.912z" class="fil3"/><path id="path1971" d="m1671.5 917.131 16.185-3.443-14.842-7.567zm21.706-5.296-.656 5.385-36.717 8.47.636-5.218 10.966-2.282 1.696-13.906-10.067-5.09.596-4.884z" class="fil3"/><path id="path1968" d="m1689.92 853.339 1.92 25.753-4.33.324-1.57-21.088-10.72.801 1.45 19.501-4.09.306-1.45-19.502-11.98.894 1.6 21.45-4.2.314-1.95-26.114z" class="fil3"/><path id="path1966" d="M1656.23 810.501q-2.775 1.184-4.117 3.002-2.5 3.443-.448 9.113.918 2.538 2.398 4.363 2.864 3.527 6.495 2.214 2.72-.984 3.262-3.104.51-2.132.02-6.11l-.612-4.881q-.602-4.784-.065-7.054.937-3.93 5.087-5.43 4.49-1.624 8.493.441t6.063 7.755q1.894 5.24.676 9.807-1.189 4.585-6.743 6.595l-1.535-4.24q2.553-1.31 3.58-2.936 1.86-3.007.072-7.951-1.443-3.99-3.752-5.13-2.31-1.139-4.532-.334-2.448.885-2.845 3.336-.241 1.6.377 6.712l.624 5.055q.45 3.658-.223 5.979-1.187 4.02-5.631 5.626-5.534 2.002-9.374-1.172-3.832-3.154-5.76-8.482-2.248-6.213-.345-10.876 1.881-4.656 7.302-6.538z" class="fil3"/><path id="path1964" d="m1653.99 748.341-3.61 2.185-6.18-10.212-26.69 16.156-2.52-4.168 26.69-16.155-6.18-10.212 3.61-2.185z" class="fil3"/><path id="path1963" d="m1604.23 717.069 8.75-14.044-15.747 5.438zm11.246-19.308 3.422 4.21-19.373 32.32-3.317-4.079 5.965-9.482-8.839-10.87-10.65 3.72-3.104-3.816z" class="fil3"/><path id="path1960" d="m1566.92 654.469 20.51 15.703-2.64 3.445-16.79-12.858-6.54 8.537 15.53 11.892-2.5 3.254-15.52-11.89-7.3 9.532 17.07 13.079-2.56 3.35-20.79-15.922z" class="fil3"/><path id="path1956" d="M1315.39 618.45q4.842-1.214 8.843-.231 5.797 1.404 8.634 7.851l-4.609 1.158q-1.786-3.554-4.858-4.598-3.076-1.066-7.1-.058-4.77 1.198-7.147 5.597-2.353 4.395-.573 11.48 1.537 6.129 5.195 9.312 3.654 3.162 9.733 1.635 4.656-1.167 7.019-4.62 2.383-3.483.939-9.533l-10.758 2.699-.968-3.859 15.085-3.787 4.613 18.383-2.993.753-2.233-4.14q-1.71 3.19-3.282 4.653-2.63 2.5-7.353 3.685-6.105 1.533-11.494-1.317-6.038-3.754-8.21-12.408-2.165-8.63 1.23-14.902 3.226-5.98 10.287-7.753" class="fil3"/><path id="path2005" d="M1526.76 650.304q2.99 1.567 5.347 1.276 2.378-.281 4.01-3.4 1.755-3.355-.044-5.847-.967-1.322-3.148-2.463l-10.383-5.433-5.61 10.726zm-6.559-21.744 14.53 7.6q3.588 1.878 5.37 4.144 3.373 4.322.544 9.727-1.475 2.82-3.59 4-2.091 1.192-4.756 1.185 1.446 1.71 1.728 3.409.3 1.71-1.02 4.5l-2.053 4.287q-.875 1.83-1.098 2.827-.4 1.697.361 2.638l-.368.705-5.214-2.727q-.002-.517.206-1.225.206-.708 1.082-2.591l2.483-5.368q1.46-3.157-.13-5.32-.915-1.214-3.522-2.578l-9.679-5.064-7.041 13.461-4.251-2.225z" class="fil3"/></g></svg>